<?xml version="1.0" encoding="UTF-8"?>
<svg width="24px" height="24px" viewBox="0 0 24 24" version="1.1" xmlns="http://www.w3.org/2000/svg">
    <g stroke="none" stroke-width="1" fill="none" fill-rule="evenodd">
        <path d="M22,4 L22,20 C22,21.1045695 21.1045695,22 20,22 L4,22 C2.8954305,22 2,21.1045695 2,20 L2,4 C2,2.8954305 2.8954305,2 4,2 L20,2 C21.1045695,2 22,2.8954305 22,4 Z M20,4 L4,4 L4,20 L20,20 L20,4 Z M16,10.5 C16.8284271,10.5 17.5,11.1715729 17.5,12 C17.5,12.8284271 16.8284271,13.5 16,13.5 C15.1715729,13.5 14.5,12.8284271 14.5,12 C14.5,11.1715729 15.1715729,10.5 16,10.5 Z M10,7 C13.3137085,7 16,9.6862915 16,13 L16,14 L4,14 L4,13 C4,9.6862915 6.6862915,7 10,7 Z M10,9 C7.790861,9 6,10.790861 6,13 L14,13 C14,10.790861 12.209139,9 10,9 Z" fill="#4361ee" fill-rule="nonzero"></path>
    </g>
</svg>